<mxfile host="app.diagrams.net" agent="Mozilla/5.0 (Macintosh; Intel Mac OS X 10_15_7) AppleWebKit/537.36 (KHTML, like Gecko) Chrome/140.0.0.0 Safari/537.36" version="28.2.3">
  <diagram name="Page-1" id="_jOLjTJmLHpMI8LlLqs5">
    <mxGraphModel dx="1743" dy="946" grid="1" gridSize="10" guides="1" tooltips="1" connect="1" arrows="1" fold="1" page="1" pageScale="1" pageWidth="827" pageHeight="1169" math="0" shadow="0">
      <root>
        <mxCell id="0" />
        <mxCell id="1" parent="0" />
        <mxCell id="3QkSgR6UV6D2OkFC4Ujb-1" value="" style="rounded=1;whiteSpace=wrap;html=1;align=center;labelPosition=center;verticalLabelPosition=top;verticalAlign=bottom;spacing=-40;spacingTop=0;" vertex="1" parent="1">
          <mxGeometry x="80" y="320" width="640" height="430" as="geometry" />
        </mxCell>
        <mxCell id="3QkSgR6UV6D2OkFC4Ujb-2" value="Internet" style="ellipse;shape=cloud;whiteSpace=wrap;html=1;" vertex="1" parent="1">
          <mxGeometry x="605" y="100" width="120" height="80" as="geometry" />
        </mxCell>
        <mxCell id="3QkSgR6UV6D2OkFC4Ujb-26" style="edgeStyle=orthogonalEdgeStyle;rounded=0;orthogonalLoop=1;jettySize=auto;html=1;exitX=1;exitY=0.5;exitDx=0;exitDy=0;exitPerimeter=0;shape=link;" edge="1" parent="1">
          <mxGeometry relative="1" as="geometry">
            <mxPoint x="540" y="510" as="targetPoint" />
            <mxPoint x="505" y="383.18181818181824" as="sourcePoint" />
          </mxGeometry>
        </mxCell>
        <mxCell id="3QkSgR6UV6D2OkFC4Ujb-20" style="edgeStyle=orthogonalEdgeStyle;rounded=0;orthogonalLoop=1;jettySize=auto;html=1;startArrow=block;startFill=1;shape=link;" edge="1" parent="1" source="3QkSgR6UV6D2OkFC4Ujb-18">
          <mxGeometry relative="1" as="geometry">
            <mxPoint x="400" y="220" as="targetPoint" />
          </mxGeometry>
        </mxCell>
        <mxCell id="3QkSgR6UV6D2OkFC4Ujb-21" style="edgeStyle=orthogonalEdgeStyle;rounded=0;orthogonalLoop=1;jettySize=auto;html=1;entryX=0.5;entryY=0;entryDx=0;entryDy=0;entryPerimeter=0;shape=link;" edge="1" parent="1">
          <mxGeometry relative="1" as="geometry">
            <mxPoint x="295" y="383.20000000000005" as="sourcePoint" />
            <mxPoint x="265" y="510" as="targetPoint" />
          </mxGeometry>
        </mxCell>
        <mxCell id="3QkSgR6UV6D2OkFC4Ujb-30" style="edgeStyle=orthogonalEdgeStyle;rounded=0;orthogonalLoop=1;jettySize=auto;html=1;entryX=0.525;entryY=0.955;entryDx=0;entryDy=0;entryPerimeter=0;shape=link;" edge="1" parent="1" source="3QkSgR6UV6D2OkFC4Ujb-28" target="3QkSgR6UV6D2OkFC4Ujb-10">
          <mxGeometry relative="1" as="geometry" />
        </mxCell>
        <mxCell id="3QkSgR6UV6D2OkFC4Ujb-31" style="edgeStyle=orthogonalEdgeStyle;rounded=0;orthogonalLoop=1;jettySize=auto;html=1;entryX=0.5;entryY=0.95;entryDx=0;entryDy=0;entryPerimeter=0;shape=link;exitX=0.755;exitY=0;exitDx=0;exitDy=0;exitPerimeter=0;" edge="1" parent="1" source="3QkSgR6UV6D2OkFC4Ujb-29" target="3QkSgR6UV6D2OkFC4Ujb-24">
          <mxGeometry relative="1" as="geometry">
            <mxPoint x="327" y="630" as="sourcePoint" />
          </mxGeometry>
        </mxCell>
        <mxCell id="3QkSgR6UV6D2OkFC4Ujb-34" style="edgeStyle=orthogonalEdgeStyle;rounded=0;orthogonalLoop=1;jettySize=auto;html=1;entryX=0.5;entryY=1;entryDx=0;entryDy=0;entryPerimeter=0;shape=link;" edge="1" parent="1" source="3QkSgR6UV6D2OkFC4Ujb-33" target="3QkSgR6UV6D2OkFC4Ujb-25">
          <mxGeometry relative="1" as="geometry" />
        </mxCell>
        <mxCell id="3QkSgR6UV6D2OkFC4Ujb-59" style="edgeStyle=orthogonalEdgeStyle;rounded=0;orthogonalLoop=1;jettySize=auto;html=1;shape=filledEdge;startArrow=none;startFill=0;endArrow=none;endFill=0;" edge="1" parent="1" source="3QkSgR6UV6D2OkFC4Ujb-51" target="3QkSgR6UV6D2OkFC4Ujb-53">
          <mxGeometry relative="1" as="geometry" />
        </mxCell>
        <mxCell id="3QkSgR6UV6D2OkFC4Ujb-51" value="Router" style="rounded=0;whiteSpace=wrap;html=1;" vertex="1" parent="1">
          <mxGeometry x="290" y="114" width="216" height="60" as="geometry" />
        </mxCell>
        <mxCell id="3QkSgR6UV6D2OkFC4Ujb-53" value="&lt;span style=&quot;text-wrap-mode: nowrap;&quot;&gt;Physical LAN/WIFI&amp;nbsp;&lt;/span&gt;&lt;br style=&quot;padding: 0px; margin: 0px; text-wrap-mode: nowrap;&quot;&gt;&lt;span style=&quot;text-wrap-mode: nowrap;&quot;&gt;network&lt;/span&gt;" style="rounded=0;whiteSpace=wrap;html=1;" vertex="1" parent="1">
          <mxGeometry x="290" y="234" width="216" height="60" as="geometry" />
        </mxCell>
        <mxCell id="3QkSgR6UV6D2OkFC4Ujb-55" value="&lt;span style=&quot;text-wrap-mode: nowrap;&quot;&gt;MacOS Operating System&lt;/span&gt;" style="rounded=0;whiteSpace=wrap;html=1;fillColor=#b0e3e6;strokeColor=#0e8088;" vertex="1" parent="1">
          <mxGeometry x="290" y="350" width="216" height="60" as="geometry" />
        </mxCell>
        <mxCell id="3QkSgR6UV6D2OkFC4Ujb-18" value="en0" style="verticalLabelPosition=middle;verticalAlign=middle;html=1;shape=mxgraph.basic.rect;fillColor2=none;strokeWidth=1;size=20;indent=5;labelPosition=center;align=center;fillColor=#dae8fc;gradientColor=#7ea6e0;strokeColor=#6c8ebf;" vertex="1" parent="1">
          <mxGeometry x="360" y="340" width="80" height="24.545454545454547" as="geometry" />
        </mxCell>
        <mxCell id="3QkSgR6UV6D2OkFC4Ujb-58" style="edgeStyle=entityRelationEdgeStyle;rounded=0;orthogonalLoop=1;jettySize=auto;html=1;exitX=1;exitY=0.5;exitDx=0;exitDy=0;entryX=0.16;entryY=0.55;entryDx=0;entryDy=0;entryPerimeter=0;shape=filledEdge;startArrow=none;startFill=0;endArrow=none;endFill=0;" edge="1" parent="1" source="3QkSgR6UV6D2OkFC4Ujb-51" target="3QkSgR6UV6D2OkFC4Ujb-2">
          <mxGeometry relative="1" as="geometry" />
        </mxCell>
        <mxCell id="3QkSgR6UV6D2OkFC4Ujb-60" value="&lt;span style=&quot;text-wrap-mode: nowrap;&quot;&gt;Virtual Network 1&lt;/span&gt;&lt;div&gt;&lt;span style=&quot;text-wrap-mode: nowrap;&quot;&gt;(vmnet.shared)&lt;/span&gt;&lt;/div&gt;" style="rounded=0;whiteSpace=wrap;html=1;fillColor=#fad9d5;strokeColor=#ae4132;" vertex="1" parent="1">
          <mxGeometry x="156" y="510" width="216" height="60" as="geometry" />
        </mxCell>
        <mxCell id="3QkSgR6UV6D2OkFC4Ujb-10" value="vmnet0" style="verticalLabelPosition=middle;verticalAlign=middle;html=1;shape=mxgraph.basic.rect;fillColor2=none;strokeWidth=1;size=20;indent=5;labelPosition=center;align=center;fillColor=#f8cecc;strokeColor=#b85450;" vertex="1" parent="1">
          <mxGeometry x="180" y="558" width="80" height="22" as="geometry" />
        </mxCell>
        <mxCell id="3QkSgR6UV6D2OkFC4Ujb-61" value="&lt;span style=&quot;text-wrap-mode: nowrap;&quot;&gt;Virtual Network 2&lt;/span&gt;&lt;div&gt;&lt;span style=&quot;text-wrap-mode: nowrap;&quot;&gt;(vmnet.host)&lt;/span&gt;&lt;/div&gt;" style="rounded=0;whiteSpace=wrap;html=1;fillColor=#fad9d5;strokeColor=#ae4132;" vertex="1" parent="1">
          <mxGeometry x="414" y="510" width="216" height="60" as="geometry" />
        </mxCell>
        <mxCell id="3QkSgR6UV6D2OkFC4Ujb-24" value="vmnet1" style="verticalLabelPosition=middle;verticalAlign=middle;html=1;shape=mxgraph.basic.rect;fillColor2=none;strokeWidth=1;size=20;indent=0;labelPosition=center;align=center;fillColor=#f8cecc;strokeColor=#b85450;" vertex="1" parent="1">
          <mxGeometry x="430" y="560" width="80" height="20" as="geometry" />
        </mxCell>
        <mxCell id="3QkSgR6UV6D2OkFC4Ujb-25" value="vmnet2" style="verticalLabelPosition=middle;verticalAlign=middle;html=1;shape=mxgraph.basic.rect;fillColor2=none;strokeWidth=1;size=20;indent=0;labelPosition=center;align=center;fillColor=#f8cecc;strokeColor=#b85450;" vertex="1" parent="1">
          <mxGeometry x="530" y="560" width="80" height="20" as="geometry" />
        </mxCell>
        <mxCell id="3QkSgR6UV6D2OkFC4Ujb-62" value="&lt;span style=&quot;text-wrap-mode: nowrap;&quot;&gt;QEMU VM running pxeboot services&lt;/span&gt;" style="rounded=0;whiteSpace=wrap;html=1;verticalAlign=middle;spacing=0;spacingBottom=-11;fillColor=#dae8fc;gradientColor=#7ea6e0;strokeColor=#6c8ebf;" vertex="1" parent="1">
          <mxGeometry x="160" y="670" width="216" height="70" as="geometry" />
        </mxCell>
        <mxCell id="3QkSgR6UV6D2OkFC4Ujb-28" value="eth0" style="verticalLabelPosition=middle;verticalAlign=middle;html=1;shape=mxgraph.basic.rect;fillColor2=none;strokeWidth=1;size=0;indent=5;labelPosition=center;align=center;fillColor=#fad7ac;strokeColor=#b46504;" vertex="1" parent="1">
          <mxGeometry x="182" y="660" width="80" height="22" as="geometry" />
        </mxCell>
        <mxCell id="3QkSgR6UV6D2OkFC4Ujb-29" value="eth1&lt;div&gt;(dhcpd, tftp, http)&lt;/div&gt;" style="verticalLabelPosition=middle;verticalAlign=middle;html=1;shape=mxgraph.basic.rect;fillColor2=none;strokeWidth=1;size=0;indent=5;labelPosition=center;align=center;fillColor=#fad7ac;strokeColor=#b46504;" vertex="1" parent="1">
          <mxGeometry x="280" y="640" width="122" height="50" as="geometry" />
        </mxCell>
        <mxCell id="3QkSgR6UV6D2OkFC4Ujb-63" value="&lt;span style=&quot;text-wrap-mode: nowrap;&quot;&gt;QEMU VM simulating host provisioning&lt;/span&gt;" style="rounded=0;whiteSpace=wrap;html=1;verticalAlign=middle;spacing=0;spacingBottom=-11;fillColor=#dae8fc;gradientColor=#7ea6e0;strokeColor=#6c8ebf;" vertex="1" parent="1">
          <mxGeometry x="440" y="670" width="216" height="70" as="geometry" />
        </mxCell>
        <mxCell id="3QkSgR6UV6D2OkFC4Ujb-33" value="eth0&lt;div&gt;(EFI firmware)&lt;/div&gt;" style="verticalLabelPosition=middle;verticalAlign=middle;html=1;shape=mxgraph.basic.rect;fillColor2=none;strokeWidth=1;size=0;indent=5;labelPosition=center;align=center;fillColor=#fad7ac;strokeColor=#b46504;" vertex="1" parent="1">
          <mxGeometry x="517" y="660" width="106" height="30" as="geometry" />
        </mxCell>
        <mxCell id="3QkSgR6UV6D2OkFC4Ujb-66" style="edgeStyle=orthogonalEdgeStyle;curved=1;rounded=0;orthogonalLoop=1;jettySize=auto;html=1;entryX=0.763;entryY=0.045;entryDx=0;entryDy=0;entryPerimeter=0;" edge="1" parent="1" source="3QkSgR6UV6D2OkFC4Ujb-29" target="3QkSgR6UV6D2OkFC4Ujb-28">
          <mxGeometry relative="1" as="geometry">
            <Array as="points">
              <mxPoint x="341" y="600" />
              <mxPoint x="243" y="600" />
            </Array>
          </mxGeometry>
        </mxCell>
        <mxCell id="3QkSgR6UV6D2OkFC4Ujb-67" value="NAT" style="edgeLabel;html=1;align=center;verticalAlign=middle;resizable=0;points=[];" vertex="1" connectable="0" parent="3QkSgR6UV6D2OkFC4Ujb-66">
          <mxGeometry x="-0.1155" y="3" relative="1" as="geometry">
            <mxPoint as="offset" />
          </mxGeometry>
        </mxCell>
        <mxCell id="3QkSgR6UV6D2OkFC4Ujb-68" value="&lt;font style=&quot;font-size: 17px;&quot;&gt;NAT&lt;/font&gt;" style="edgeLabel;html=1;align=center;verticalAlign=middle;resizable=0;points=[];" vertex="1" connectable="0" parent="3QkSgR6UV6D2OkFC4Ujb-66">
          <mxGeometry x="-0.1256" y="1" relative="1" as="geometry">
            <mxPoint as="offset" />
          </mxGeometry>
        </mxCell>
      </root>
    </mxGraphModel>
  </diagram>
</mxfile>
